<mxfile host="app.diagrams.net" agent="Mozilla/5.0 (Windows NT 10.0; Win64; x64) AppleWebKit/537.36 (KHTML, like Gecko) Chrome/129.0.0.0 Safari/537.36 Edg/129.0.0.0" version="24.7.14">
  <diagram name="Page-1" id="IP5tvbaaJRMM7KlXOJkK">
    <mxGraphModel dx="1246" dy="681" grid="1" gridSize="10" guides="1" tooltips="1" connect="1" arrows="1" fold="1" page="1" pageScale="1" pageWidth="1169" pageHeight="827" math="0" shadow="0">
      <root>
        <mxCell id="0" />
        <mxCell id="1" parent="0" />
        <mxCell id="tr365use4i5TaQ1V_cGD-1" value="&lt;b&gt;BUILDING&lt;/b&gt;&lt;div&gt;&lt;b&gt;&lt;u&gt;Building_ID&lt;/u&gt;&lt;/b&gt;&lt;/div&gt;&lt;div&gt;Building_Requirements&lt;/div&gt;&lt;div&gt;Building_Size&lt;/div&gt;" style="rounded=0;whiteSpace=wrap;html=1;" vertex="1" parent="1">
          <mxGeometry x="220" y="140" width="180" height="110" as="geometry" />
        </mxCell>
        <mxCell id="tr365use4i5TaQ1V_cGD-2" value="&lt;b&gt;MATERIAL&lt;/b&gt;&lt;div&gt;&lt;b&gt;&lt;u&gt;Material_Name&lt;/u&gt;&lt;/b&gt;&lt;/div&gt;" style="rounded=0;whiteSpace=wrap;html=1;" vertex="1" parent="1">
          <mxGeometry x="740" y="140" width="180" height="110" as="geometry" />
        </mxCell>
        <mxCell id="tr365use4i5TaQ1V_cGD-3" value="&lt;b&gt;CREW&lt;/b&gt;&lt;div&gt;&lt;b&gt;&lt;u&gt;Crew_ID&lt;/u&gt;&lt;/b&gt;&lt;/div&gt;&lt;div&gt;Crew_Type&lt;/div&gt;&lt;div&gt;Crew_Size&lt;/div&gt;" style="rounded=0;whiteSpace=wrap;html=1;" vertex="1" parent="1">
          <mxGeometry x="220" y="400" width="180" height="110" as="geometry" />
        </mxCell>
        <mxCell id="tr365use4i5TaQ1V_cGD-4" value="&lt;b&gt;WORKER&lt;/b&gt;&lt;div&gt;&lt;b&gt;&lt;u&gt;Worker_ID&lt;/u&gt;&lt;/b&gt;&lt;/div&gt;&lt;div&gt;{Skill}&lt;/div&gt;" style="rounded=0;whiteSpace=wrap;html=1;" vertex="1" parent="1">
          <mxGeometry x="740" y="400" width="180" height="110" as="geometry" />
        </mxCell>
        <mxCell id="tr365use4i5TaQ1V_cGD-5" value="" style="endArrow=ERoneToMany;html=1;rounded=0;exitX=1;exitY=0.5;exitDx=0;exitDy=0;entryX=0;entryY=0.5;entryDx=0;entryDy=0;startArrow=ERoneToMany;startFill=0;endFill=0;" edge="1" parent="1" source="tr365use4i5TaQ1V_cGD-1" target="tr365use4i5TaQ1V_cGD-2">
          <mxGeometry width="50" height="50" relative="1" as="geometry">
            <mxPoint x="510" y="380" as="sourcePoint" />
            <mxPoint x="560" y="330" as="targetPoint" />
          </mxGeometry>
        </mxCell>
        <mxCell id="tr365use4i5TaQ1V_cGD-6" value="" style="endArrow=ERoneToMany;html=1;rounded=0;exitX=0.5;exitY=0;exitDx=0;exitDy=0;entryX=0.5;entryY=1;entryDx=0;entryDy=0;startArrow=ERoneToMany;startFill=0;endFill=0;" edge="1" parent="1" source="tr365use4i5TaQ1V_cGD-3" target="tr365use4i5TaQ1V_cGD-1">
          <mxGeometry width="50" height="50" relative="1" as="geometry">
            <mxPoint x="510" y="380" as="sourcePoint" />
            <mxPoint x="560" y="330" as="targetPoint" />
          </mxGeometry>
        </mxCell>
        <mxCell id="tr365use4i5TaQ1V_cGD-7" value="" style="endArrow=ERoneToMany;html=1;rounded=0;exitX=1;exitY=0.5;exitDx=0;exitDy=0;entryX=0;entryY=0.5;entryDx=0;entryDy=0;startArrow=ERoneToMany;startFill=0;endFill=0;" edge="1" parent="1">
          <mxGeometry width="50" height="50" relative="1" as="geometry">
            <mxPoint x="400" y="438" as="sourcePoint" />
            <mxPoint x="740" y="438" as="targetPoint" />
          </mxGeometry>
        </mxCell>
        <mxCell id="tr365use4i5TaQ1V_cGD-8" value="" style="endArrow=none;html=1;rounded=0;" edge="1" parent="1">
          <mxGeometry width="50" height="50" relative="1" as="geometry">
            <mxPoint x="560" y="90" as="sourcePoint" />
            <mxPoint x="560" y="194" as="targetPoint" />
          </mxGeometry>
        </mxCell>
        <mxCell id="tr365use4i5TaQ1V_cGD-9" value="" style="endArrow=none;html=1;rounded=0;" edge="1" parent="1">
          <mxGeometry width="50" height="50" relative="1" as="geometry">
            <mxPoint x="200" y="320" as="sourcePoint" />
            <mxPoint x="310" y="320" as="targetPoint" />
          </mxGeometry>
        </mxCell>
        <mxCell id="tr365use4i5TaQ1V_cGD-10" value="Material_Qty" style="ellipse;whiteSpace=wrap;html=1;" vertex="1" parent="1">
          <mxGeometry x="500" y="10" width="120" height="80" as="geometry" />
        </mxCell>
        <mxCell id="tr365use4i5TaQ1V_cGD-11" value="Schedule" style="ellipse;whiteSpace=wrap;html=1;" vertex="1" parent="1">
          <mxGeometry x="80" y="280" width="120" height="80" as="geometry" />
        </mxCell>
        <mxCell id="tr365use4i5TaQ1V_cGD-12" value="" style="endArrow=ERmandOne;html=1;rounded=0;exitX=1;exitY=0.5;exitDx=0;exitDy=0;entryX=0;entryY=0.5;entryDx=0;entryDy=0;startArrow=ERzeroToOne;startFill=0;endFill=0;" edge="1" parent="1">
          <mxGeometry width="50" height="50" relative="1" as="geometry">
            <mxPoint x="400" y="480" as="sourcePoint" />
            <mxPoint x="740" y="480" as="targetPoint" />
          </mxGeometry>
        </mxCell>
        <mxCell id="tr365use4i5TaQ1V_cGD-13" value="requires" style="text;html=1;align=center;verticalAlign=middle;whiteSpace=wrap;rounded=0;" vertex="1" parent="1">
          <mxGeometry x="525" y="200" width="60" height="30" as="geometry" />
        </mxCell>
        <mxCell id="tr365use4i5TaQ1V_cGD-14" value="assigns" style="text;html=1;align=center;verticalAlign=middle;whiteSpace=wrap;rounded=0;" vertex="1" parent="1">
          <mxGeometry x="310" y="305" width="60" height="30" as="geometry" />
        </mxCell>
        <mxCell id="tr365use4i5TaQ1V_cGD-15" value="assigned" style="text;html=1;align=center;verticalAlign=middle;whiteSpace=wrap;rounded=0;" vertex="1" parent="1">
          <mxGeometry x="525" y="400" width="60" height="30" as="geometry" />
        </mxCell>
        <mxCell id="tr365use4i5TaQ1V_cGD-16" value="is_foreman" style="text;html=1;align=center;verticalAlign=middle;whiteSpace=wrap;rounded=0;" vertex="1" parent="1">
          <mxGeometry x="525" y="490" width="60" height="30" as="geometry" />
        </mxCell>
      </root>
    </mxGraphModel>
  </diagram>
</mxfile>
